<svg width="36" height="23" viewBox="0 0 36 23" fill="none" xmlns="http://www.w3.org/2000/svg">
<path d="M26.7895 6.81522C26.3446 6.68546 25.8574 6.80793 25.4374 6.83855C25.2974 6.84827 25.2225 6.78315 25.2128 6.64317C25.2463 6.00308 25.2696 5.28134 25.2025 4.62229C25.1457 4.35255 25.0392 4.07552 24.7927 3.85098C24.606 3.58707 24.1495 3.68767 24.0459 3.98075C23.9846 4.33214 23.8417 4.6952 23.76 5.01889C23.6521 5.4913 23.531 5.88498 23.3822 6.29907C23.2874 6.54111 23.2189 6.63297 22.9257 6.52944C22.3102 6.34427 21.6903 6.33989 21.0879 6.23346C20.837 6.18971 20.7101 6.32386 20.7743 6.54257C20.7743 6.98144 20.7583 7.52238 21.4044 7.6886C21.5036 7.70464 21.5678 7.79358 21.6509 7.91169C21.9543 8.09395 22.1891 8.23975 22.4736 8.39285C22.8484 8.61448 22.7901 8.6553 22.5231 8.84193C22.2285 9.04898 21.9543 9.28664 21.6699 9.57242C21.4628 9.71823 21.3577 10.3204 21.4817 10.4983C21.6276 10.7053 21.8376 10.6908 22.0856 10.6047C22.6034 10.4633 23.0395 10.3306 23.4741 10.0696C23.7221 9.9836 23.8213 10.0011 23.9073 10.249C23.9934 10.4968 24.0517 10.7666 24.1378 11.0144C24.342 11.6181 24.7621 12.0293 25.3542 12.054C25.5832 12.0686 25.6941 12.0366 25.9552 12.0293C26.4117 11.9287 26.3694 11.8689 26.3986 11.4096C26.4511 10.666 26.0573 10.1075 25.7933 9.5418C25.7072 9.29393 25.7641 9.25165 25.9333 9.17875C26.4715 9.06502 26.947 8.8638 27.5056 8.77924C27.7944 8.75299 27.8426 8.63197 27.8776 8.43076C27.984 7.82712 27.4021 7.00186 26.788 6.81522H26.7895Z" fill="#F2CB0C"/>
<path d="M13.4893 5.51025C13.6833 5.8631 14.0581 6.08764 14.3338 6.32676C14.4252 6.40647 14.4311 6.4925 14.3513 6.58484C13.9371 6.95811 13.4791 7.38824 13.1144 7.83295C12.9832 8.03416 12.8796 8.26891 12.8913 8.55906C12.8432 8.83609 13.1859 9.0548 13.431 8.93962C13.6847 8.76173 13.9954 8.62613 14.2448 8.47741C14.6007 8.25287 14.9187 8.08665 15.2644 7.92335C15.4715 7.83295 15.5707 7.81836 15.6874 8.06186C15.9514 8.55323 16.3306 8.93816 16.6354 9.37266C16.7638 9.55346 16.9228 9.55055 17.0176 9.37558C17.2874 9.10438 17.6302 8.78215 17.3356 8.28349C17.2845 8.21204 17.3006 8.11873 17.321 7.99479C17.2466 7.69589 17.1912 7.4626 17.1109 7.19431C17.0161 6.82834 17.0774 6.83855 17.356 6.88812C17.6652 6.94207 17.9788 6.96394 18.3303 6.96248C18.5476 6.99893 18.9823 6.6942 19.0144 6.50902C19.0508 6.29177 18.9137 6.17221 18.7081 6.07306C18.3026 5.84269 17.954 5.6546 17.5252 5.54816C17.3195 5.44901 17.2699 5.37611 17.3691 5.17052C17.4683 4.96493 17.5996 4.76372 17.6987 4.55813C17.9452 4.06093 17.9394 3.55061 17.5908 3.17151C17.4581 3.02133 17.3706 2.97322 17.2072 2.8172C16.8644 2.59849 16.8542 2.66119 16.5538 2.9251C16.0651 3.3494 15.963 3.93554 15.7778 4.4444C15.6786 4.64999 15.6174 4.63978 15.4686 4.58146C15.0689 4.32047 14.6518 4.15279 14.2565 3.85972C14.0625 3.69787 13.959 3.74307 13.8146 3.84514C13.3784 4.15133 13.2282 5.01596 13.4922 5.50733L13.4893 5.51025Z" fill="#F2CB0C"/>
<path d="M1.07113 7.48426C3.93723 6.73627 6.70123 5.63543 9.29603 4.20507C9.48127 4.10301 9.40251 3.60872 9.19685 3.72245C6.60205 5.15281 3.83659 6.25511 0.971947 7.00164C0.772122 7.05413 0.831924 7.5455 1.07113 7.48426Z" fill="#F2CB0C"/>
<path d="M5.4661 10.7417C6.6738 10.4603 7.82899 9.98793 8.88937 9.34201C9.07024 9.23265 8.98856 8.73982 8.79019 8.85939C7.72981 9.50385 6.57607 9.97626 5.36691 10.2591C5.16709 10.3058 5.22543 10.7972 5.4661 10.7417Z" fill="#F2CB0C"/>
<path d="M8.0196 15.9774C9.45484 15.2396 10.7603 14.2641 11.8717 13.0948C11.9548 13.0073 11.9694 12.86 11.9227 12.7492C11.8863 12.6646 11.7798 12.5757 11.6952 12.6646C10.6042 13.8136 9.33086 14.7701 7.92188 15.4947C7.73372 15.591 7.80957 16.0853 8.02106 15.9774H8.0196Z" fill="#F2CB0C"/>
<path d="M10.7395 19.6213C12.166 18.032 13.3372 16.24 14.2255 14.2994C14.3232 14.085 14.0709 13.754 13.9352 14.053C13.0791 15.9251 11.9385 17.6602 10.563 19.1926C10.4274 19.3428 10.563 19.8181 10.7395 19.6228V19.6213Z" fill="#F2CB0C"/>
<path d="M18.3838 21.4584C17.8324 19.4288 17.6603 17.3131 17.8908 15.2223C17.901 15.1261 17.8835 14.9496 17.7682 14.9161C17.653 14.8826 17.5801 14.9977 17.5699 15.0969C17.3292 17.2752 17.494 19.4842 18.0702 21.5999C18.1562 21.9192 18.4567 21.7209 18.3852 21.4584H18.3838Z" fill="#F2CB0C"/>
<path d="M24.277 21.7702C23.3814 20.1663 22.7119 18.4414 22.2845 16.6553C22.2072 16.333 21.9068 16.5328 21.9695 16.7967C22.4158 18.6645 23.1159 20.455 24.0509 22.1318C24.1078 22.2353 24.2259 22.2076 24.2842 22.1259C24.3586 22.0239 24.3324 21.8722 24.2755 21.7716L24.277 21.7702Z" fill="#F2CB0C"/>
<path d="M27.4897 18.9008C26.8246 18.1601 26.2135 17.3713 25.6592 16.5446C25.5965 16.4527 25.4842 16.4585 25.4259 16.5504C25.3617 16.6525 25.3675 16.807 25.4346 16.9047C26.0078 17.7606 26.6438 18.5713 27.3337 19.3368C27.4154 19.4272 27.5277 19.3222 27.5568 19.2405C27.6006 19.121 27.5729 18.9912 27.4897 18.8979V18.9008Z" fill="#F2CB0C"/>
<path d="M30.7581 18.395C29.9296 17.284 29.1828 16.1117 28.5338 14.8869C28.3806 14.5967 28.1443 14.9379 28.2552 15.1479C28.9218 16.4077 29.6817 17.6135 30.5335 18.7566C30.7158 19.0001 30.885 18.5656 30.7581 18.3965V18.395Z" fill="#F2CB0C"/>
<path d="M32.7632 13.891C31.0071 12.7741 29.5354 11.2592 28.4735 9.47013C28.4152 9.37099 28.2985 9.3914 28.2402 9.47597C28.1702 9.57803 28.1891 9.72967 28.2489 9.83028C29.3253 11.6456 30.8262 13.1955 32.6071 14.3284C32.8376 14.4757 32.9368 14.0018 32.7632 13.891Z" fill="#F2CB0C"/>
<path d="M34.4296 10.4032C33.7586 9.70328 33.0877 9.00341 32.4153 8.30208C32.3307 8.2146 32.2227 8.31375 32.1921 8.39832C32.1498 8.51496 32.1746 8.65056 32.2592 8.74096C32.9301 9.44083 33.6011 10.1407 34.2735 10.842C34.3581 10.9295 34.466 10.8304 34.4967 10.7458C34.539 10.6292 34.5142 10.4936 34.4296 10.4032Z" fill="#F2CB0C"/>
<path d="M6.06012 0.510323C5.84279 4.24005 6.30516 7.99457 7.40055 11.5654C7.89501 13.1765 8.50178 14.7819 9.43526 16.1962C10.306 17.5172 11.4773 18.5816 12.8892 19.2989C15.6342 20.6943 18.9058 20.757 21.9105 20.5004C23.5878 20.356 25.3016 20.0819 26.8361 19.3558C28.3705 18.6297 29.5023 17.5332 30.4606 16.2239C31.4422 14.8825 32.1788 13.3763 32.8643 11.8672C33.633 10.1744 34.3054 8.43928 34.8757 6.66919C35.0172 6.23031 35.1514 5.78998 35.2812 5.34818C35.3454 5.13093 35.341 4.82036 35.1456 4.66435C34.9662 4.52146 34.7561 4.65852 34.6992 4.85536C34.196 6.57879 33.5995 8.27452 32.911 9.93234C32.2765 11.4589 31.5852 12.9812 30.7275 14.3969C29.9414 15.6946 28.9758 16.9136 27.7141 17.7796C26.3576 18.7099 24.7255 19.1415 23.1152 19.3602C21.5881 19.5687 20.0289 19.6518 18.4886 19.5876C16.9484 19.5235 15.5496 19.3121 14.164 18.809C12.7987 18.3133 11.5356 17.523 10.5875 16.4105C9.55924 15.2032 8.88976 13.7495 8.36321 12.2667C7.17885 8.92627 6.61584 5.36422 6.67126 1.82258C6.67856 1.37933 6.69606 0.93462 6.72086 0.492826C6.73107 0.301819 6.60417 0 6.37809 0C6.13013 0 6.07179 0.329523 6.06012 0.510323Z" fill="#F2CB0C"/>
</svg>
