<svg width="17" height="17" viewBox="0 0 17 17" fill="none" xmlns="http://www.w3.org/2000/svg">
<path d="M13.9561 5.75146C12.893 5.61641 11.818 6.01445 10.8656 6.2028C10.5468 6.26441 10.3544 6.15186 10.2886 5.86518C10.1542 4.53602 9.96449 3.03982 9.59695 1.7C9.37564 1.1598 9.03972 0.62316 8.40344 0.232229C7.88967 -0.258211 6.87399 0.0865187 6.73172 0.722669C6.70801 1.46544 6.5025 2.25441 6.41951 2.94742C6.32861 3.95318 6.18238 4.80256 5.97688 5.7017C5.84251 6.22768 5.7121 6.44092 5.00863 6.31298C3.53847 6.11396 2.11178 6.29165 0.696952 6.25256C0.104145 6.23834 -0.140881 6.55109 0.0804335 6.98466C0.230611 7.89091 0.368931 9.0104 1.90628 9.15966C2.13945 9.16321 2.31333 9.32669 2.54255 9.54704C3.30134 9.8349 3.88625 10.0624 4.58972 10.2934C5.5224 10.6381 5.40383 10.7412 4.8545 11.2032C4.24588 11.7185 3.69655 12.2907 3.13931 12.9659C2.71249 13.3284 2.67297 14.6043 3.0168 14.9312C3.41991 15.315 3.8981 15.2226 4.43558 14.9703C5.57377 14.5225 6.53016 14.1209 7.44308 13.4528C7.98451 13.2005 8.21769 13.2076 8.49829 13.6945C8.77888 14.1813 9.0002 14.718 9.2808 15.2049C9.94869 16.3919 11.0513 17.1133 12.4148 16.9854C12.9483 16.9463 13.1894 16.8468 13.7822 16.7544C14.7939 16.4096 14.6793 16.2995 14.5963 15.3435C14.4698 13.794 13.3791 12.7598 12.5887 11.6723C12.3081 11.1854 12.4266 11.0823 12.7902 10.8798C13.9837 10.4853 15.0113 9.92731 16.2641 9.58613C16.9201 9.44397 16.9873 9.18098 16.9991 8.75451C17.0426 7.47866 15.4341 5.94692 13.964 5.7479L13.9561 5.75146Z" fill="#EFC80C"/>
</svg>
